# xmcd
#
# Track frame offsets: 
#        150
#        11455
#        23520
#        33472
#        44035
#        55692
#        66250
#        74477
#        85080
#        98315
#        109687
#        116457
#        129250
#        135687
#        148547
#        162810
#        174227
#        193235
#        200800
#        211035
#        225060
#        235562
#        248895
#        261780
#
# Disc length: 3622 seconds
#
# Revision: 1
# Processed by: cddbd v1.5.2PL0 Copyright (c) Steve Scherf et al.
# Submitted via: ExactAudioCopyFreeDBPlugin 1.0
#
DISCID=380e2418
DTITLE=John Hartford - Love Album and Housing Project
DYEAR=1968
DGENRE=Folk/Rock
TTITLE0=Why Do You Do Me Like You Do?
TTITLE1=Six O'Clock Train And A Girl With Green Eyes, The
TTITLE2=Springtime All Over Again
TTITLE3=Landscape Grown Cold
TTITLE4=This Eve Of Parting
TTITLE5=I Would Not Be Here
TTITLE6=Natural To Be Gone
TTITLE7=Empty Afternoon Of Summer Longing
TTITLE8=A Simple Thing As Love
TTITLE9=Windows
TTITLE10=Prayer
TTITLE11=Love Is Sweeter
TTITLE12=Housing Project
TTITLE13=I'm Still Here
TTITLE14=Crystallia Daydream
TTITLE15=Girl With The Long Brown Hair, The
TTITLE16=I Didn't Know The World Would Last This Long
TTITLE17=Sailboat Song, The
TTITLE18=Category Stomp, The
TTITLE19=Go Fall Asleep Now
TTITLE20=My Face
TTITLE21=Big Blue Balloon
TTITLE22=In Like Of
TTITLE23=Shiny Rails Of Steel
EXTD=
EXTT0=
EXTT1=
EXTT2=
EXTT3=
EXTT4=
EXTT5=
EXTT6=
EXTT7=
EXTT8=
EXTT9=
EXTT10=
EXTT11=
EXTT12=
EXTT13=
EXTT14=
EXTT15=
EXTT16=
EXTT17=
EXTT18=
EXTT19=
EXTT20=
EXTT21=
EXTT22=
EXTT23=
PLAYORDER=
